<svg xmlns="http://www.w3.org/2000/svg" width="20" height="20" viewBox="0 0 24 24" fill="none">
<path d="M2.28713 21.7117L2.28695 21.7115C1.57136 20.9964 1.17136 20.035 0.962917 18.484C0.751592 16.9117 0.75 14.8496 0.75 12C0.75 9.15041 0.751592 7.08863 0.962917 5.51625C1.17132 3.96561 1.57126 3.00362 2.28706 2.2872C3.00417 1.57122 3.96633 1.1713 5.51671 0.962916C7.08893 0.751592 9.1504 0.75 12 0.75C14.8496 0.75 16.9114 0.751592 18.4836 0.962916C20.0341 1.17133 20.9957 1.57127 21.7115 2.28695C22.4282 3.00411 22.8284 3.96628 23.0369 5.51678C23.2484 7.08896 23.25 9.15039 23.25 12C23.25 14.8496 23.2484 16.9113 23.0369 18.4835C22.8284 20.0341 22.4282 20.9957 21.7119 21.7115L21.7113 21.712C20.9962 22.4281 20.0348 22.8284 18.484 23.0369C16.9116 23.2484 14.8496 23.25 12 23.25C9.15039 23.25 7.08866 23.2484 5.51632 23.0369C3.96559 22.8284 3.0036 22.4281 2.28713 21.7117Z" fill="#212730" stroke="#212730" stroke-width="1.5"/>
<path d="M17.5115 7.65512C17.7176 7.86148 17.8333 8.14121 17.8333 8.43287C17.8333 8.72452 17.7176 9.00425 17.5115 9.21061L10.1741 16.5478C9.96773 16.754 9.68799 16.8697 9.39633 16.8697C9.10467 16.8697 8.82493 16.754 8.61857 16.5478L5.68363 13.613C5.57549 13.5122 5.48876 13.3907 5.42861 13.2557C5.36845 13.1207 5.33611 12.9749 5.3335 12.8272C5.33089 12.6794 5.35808 12.5326 5.41343 12.3956C5.46879 12.2585 5.55118 12.134 5.65569 12.0295C5.7602 11.925 5.88469 11.8426 6.02173 11.7873C6.15878 11.7319 6.30557 11.7047 6.45335 11.7073C6.60113 11.7099 6.74687 11.7423 6.88187 11.8024C7.01688 11.8626 7.13839 11.9493 7.23915 12.0575L9.39633 14.2146L15.9559 7.65512C16.1623 7.44902 16.442 7.33325 16.7337 7.33325C17.0254 7.33325 17.3051 7.44902 17.5115 7.65512Z" fill="white"/>
</svg>