<svg xmlns="http://www.w3.org/2000/svg" width="20" height="20" viewBox="0 0 24 24" fill="none">
<path d="M2.28713 21.7117L2.28695 21.7115C1.57136 20.9964 1.17136 20.035 0.962917 18.4841C0.751592 16.9117 0.75 14.8496 0.75 12C0.75 9.15041 0.751592 7.08863 0.962917 5.51625C1.17132 3.96561 1.57126 3.00362 2.28706 2.2872C3.00417 1.57122 3.96633 1.1713 5.51671 0.962916C7.08893 0.751592 9.1504 0.75 12 0.75C14.8496 0.75 16.9114 0.751592 18.4836 0.962916C20.0341 1.17133 20.9957 1.57127 21.7115 2.28695C22.4282 3.00411 22.8284 3.96628 23.0369 5.51678C23.2484 7.08896 23.25 9.15039 23.25 12C23.25 14.8496 23.2484 16.9113 23.0369 18.4835C22.8284 20.0341 22.4282 20.9957 21.7119 21.7115L21.7113 21.712C20.9962 22.4281 20.0348 22.8284 18.484 23.0369C16.9116 23.2484 14.8496 23.25 12 23.25C9.15039 23.25 7.08866 23.2484 5.51632 23.0369C3.96559 22.8284 3.00359 22.4281 2.28713 21.7117Z" stroke="#C9CFD9" stroke-width="1.5"/>
</svg>