<svg width="7" height="10" viewBox="0 0 7 10" fill="none" xmlns="http://www.w3.org/2000/svg">
<path fill-rule="evenodd" clip-rule="evenodd" d="M1.23317 0.467318C1.13412 0.393033 1.01635 0.347797 0.893041 0.336678C0.769733 0.32556 0.645765 0.348998 0.535028 0.404366C0.424291 0.459735 0.33116 0.544847 0.26607 0.650164C0.20098 0.755481 0.166504 0.876843 0.166504 1.00065V9.00065C0.166504 9.12446 0.20098 9.24582 0.26607 9.35114C0.33116 9.45646 0.424291 9.54157 0.535028 9.59694C0.645765 9.6523 0.769733 9.67574 0.893041 9.66463C1.01635 9.65351 1.13412 9.60827 1.23317 9.53398L6.5665 5.53399C6.6493 5.47189 6.7165 5.39136 6.76279 5.29879C6.80907 5.20622 6.83317 5.10415 6.83317 5.00065C6.83317 4.89715 6.80907 4.79508 6.76279 4.70251C6.7165 4.60994 6.6493 4.52942 6.5665 4.46732L1.23317 0.467318Z" fill="white"/>
</svg>
