<svg width="24" height="25" viewBox="0 0 24 25" fill="none" xmlns="http://www.w3.org/2000/svg">
<g clip-path="url(#clip0_3211_10126)">
<path d="M6.00049 19.0596H4.00049V17.0596H6.00049V19.0596ZM6.00049 15.0596H4.00049V13.0596H6.00049V15.0596ZM6.00049 11.0596H4.00049V9.05957H6.00049V11.0596ZM6.00049 7.05957H4.00049V5.05957H6.00049V7.05957ZM10.0005 19.0596H8.00049V17.0596H10.0005V19.0596ZM10.0005 15.0596H8.00049V13.0596H10.0005V15.0596ZM10.0005 11.0596H8.00049V9.05957H10.0005V11.0596ZM10.0005 7.05957H8.00049V5.05957H10.0005V7.05957ZM16.0005 19.0596H12.0005V17.0596H14.0005V15.0596H12.0005V13.0596H14.0005V11.0596H12.0005V9.05957H20.0005V15.0596H22.0005V8.05957C22.0005 7.50957 21.5505 7.05957 21.0005 7.05957H12.0005V4.05957C12.0005 3.50957 11.5505 3.05957 11.0005 3.05957H3.00049C2.45049 3.05957 2.00049 3.50957 2.00049 4.05957V20.0596C2.00049 20.6096 2.45049 21.0596 3.00049 21.0596H16.0005V19.0596ZM18.0005 11.0596H16.0005V13.0596H18.0005V11.0596ZM18.0005 15.0596H16.0005V17.0596H18.0005V15.0596ZM24.0005 20.0596C24.0005 20.6096 23.5505 21.0596 23.0005 21.0596H22.0005V22.0596C22.0005 22.6096 21.5505 23.0596 21.0005 23.0596C20.4505 23.0596 20.0005 22.6096 20.0005 22.0596V21.0596H19.0005C18.4505 21.0596 18.0005 20.6096 18.0005 20.0596C18.0005 19.5096 18.4505 19.0596 19.0005 19.0596H20.0005V18.0596C20.0005 17.5096 20.4505 17.0596 21.0005 17.0596C21.5505 17.0596 22.0005 17.5096 22.0005 18.0596V19.0596H23.0005C23.5505 19.0596 24.0005 19.5096 24.0005 20.0596Z" fill="#2E3642"/>
</g>
<defs>
<clipPath id="clip0_3211_10126">
<rect width="24" height="24" fill="white" transform="translate(0 0.0595703)"/>
</clipPath>
</defs>
</svg>
