<svg width="7" height="10" viewBox="0 0 7 10" fill="none" xmlns="http://www.w3.org/2000/svg">
<path fill-rule="evenodd" clip-rule="evenodd" d="M5.76634 0.467318C5.86539 0.393033 5.98316 0.347797 6.10647 0.336678C6.22978 0.32556 6.35375 0.348998 6.46448 0.404366C6.57522 0.459735 6.66835 0.544847 6.73344 0.650164C6.79853 0.755481 6.83301 0.876843 6.83301 1.00065V9.00065C6.83301 9.12446 6.79853 9.24582 6.73344 9.35114C6.66835 9.45646 6.57522 9.54157 6.46448 9.59694C6.35375 9.6523 6.22978 9.67574 6.10647 9.66463C5.98316 9.65351 5.86539 9.60827 5.76634 9.53398L0.433008 5.53399C0.350211 5.47189 0.283009 5.39136 0.236724 5.29879C0.190439 5.20622 0.166342 5.10415 0.166342 5.00065C0.166342 4.89715 0.190439 4.79508 0.236724 4.70251C0.283009 4.60994 0.350211 4.52942 0.433008 4.46732L5.76634 0.467318Z" fill="white"/>
</svg>
