<svg xmlns="http://www.w3.org/2000/svg" width="24" height="24" viewBox="0 0 24 24" fill="none">
<path fill-rule="evenodd" clip-rule="evenodd" d="M12.5372 10.4622C12.4462 10.5 12.3485 10.5192 12.25 10.5187C12.1514 10.5192 12.0538 10.5 11.9628 10.4622C11.8718 10.4244 11.7892 10.3688 11.72 10.2987C11.5795 10.1581 11.5006 9.96746 11.5006 9.76871C11.5006 9.56996 11.5795 9.37933 11.72 9.23871L13.44 7.51868H12.25C11.1128 7.51868 10.0011 7.85591 9.05547 8.48773C8.10989 9.11954 7.3729 10.0176 6.93769 11.0682C6.50249 12.1189 6.38862 13.2751 6.61049 14.3904C6.83235 15.5058 7.37998 16.5304 8.18414 17.3345C8.98829 18.1387 10.0128 18.6863 11.1282 18.9082C12.2436 19.1301 13.3998 19.0162 14.4504 18.581C15.5011 18.1458 16.3991 17.4088 17.031 16.4632C17.6628 15.5176 18 14.4059 18 13.2687C18 13.0698 18.079 12.879 18.2197 12.7383C18.3603 12.5977 18.5511 12.5187 18.75 12.5187C18.9489 12.5187 19.1397 12.5977 19.2803 12.7383C19.421 12.879 19.5 13.0698 19.5 13.2687C19.4974 15.1907 18.7327 17.0332 17.3736 18.3923C16.0145 19.7513 14.172 20.516 12.25 20.5187C10.3272 20.5187 8.48311 19.7548 7.12348 18.3952C5.76384 17.0356 5 15.1915 5 13.2687C5 11.3459 5.76384 9.50179 7.12348 8.14215C8.48311 6.78251 10.3272 6.01868 12.25 6.01868H13.44L11.72 4.29871C11.6463 4.23005 11.5872 4.14725 11.5462 4.05525C11.5052 3.96325 11.4832 3.86393 11.4814 3.76323C11.4796 3.66253 11.4981 3.5625 11.5359 3.46911C11.5736 3.37572 11.6297 3.29089 11.701 3.21967C11.7722 3.14845 11.857 3.09231 11.9504 3.05459C12.0438 3.01686 12.1438 2.99834 12.2445 3.00012C12.3452 3.00189 12.4445 3.02394 12.5365 3.06493C12.6285 3.10592 12.7113 3.16502 12.78 3.23871L15.78 6.23871C15.9204 6.37933 15.9993 6.56996 15.9993 6.76871C15.9993 6.96746 15.9204 7.15808 15.78 7.29871L12.78 10.2987C12.7107 10.3688 12.6282 10.4244 12.5372 10.4622Z" fill="#58677F"/>
</svg>