<svg width="100.41" height="25.86" viewBox="0 0 199 53" fill="none" xmlns="http://www.w3.org/2000/svg">
<path d="M17.6608 52.2556C7.91055 52.2556 0 42.8733 0 33.123C0 22.8209 5.88692 8.10352 17.6608 8.10352C29.4346 8.10352 35.3215 22.8209 35.3215 33.123C35.3215 42.8733 27.411 52.2556 17.6608 52.2556ZM14.239 18.9576C14.8369 18.4057 14.8829 17.4766 14.331 16.8787C13.7791 16.2809 12.85 16.2349 12.2522 16.7868C10.0538 18.792 8.47165 21.6343 7.44143 24.5318C6.41122 27.4293 5.88692 30.5199 5.88692 33.123C5.88692 33.9325 6.5492 34.5948 7.35865 34.5948C8.1681 34.5948 8.83038 33.9325 8.83038 33.123C8.83038 30.8694 9.29029 28.1191 10.2193 25.5068C11.1484 22.8853 12.5189 20.5305 14.239 18.9576Z" fill="#FF4F5A"/>
<path d="M66.08 17.986H72.2697V42.7449H66.08V40.1279C64.8663 41.2809 63.6451 42.1153 62.4162 42.6311C61.2026 43.1317 59.8827 43.382 58.4566 43.382C55.2556 43.382 52.4869 42.1456 50.1506 39.6728C47.8143 37.1848 46.6461 34.0975 46.6461 30.411C46.6461 26.5879 47.7763 23.4551 50.0368 21.0126C52.2973 18.5701 55.0432 17.3488 58.2746 17.3488C59.7613 17.3488 61.157 17.6295 62.4617 18.1908C63.7664 18.7522 64.9725 19.5941 66.08 20.7168V17.986ZM59.5489 23.0834C57.6222 23.0834 56.0217 23.7661 54.7474 25.1315C53.473 26.4817 52.8358 28.2188 52.8358 30.3427C52.8358 32.4818 53.4806 34.2416 54.7701 35.6222C56.0748 37.0027 57.6753 37.693 59.5717 37.693C61.5287 37.693 63.152 37.0179 64.4415 35.6677C65.7311 34.3023 66.3758 32.5197 66.3758 30.3199C66.3758 28.1657 65.7311 26.421 64.4415 25.086C63.152 23.751 61.5211 23.0834 59.5489 23.0834ZM80.9854 7.7912C82.0777 7.7912 83.0107 8.18564 83.7844 8.97453C84.5733 9.76341 84.9677 10.7192 84.9677 11.8418C84.9677 12.9493 84.5809 13.8975 83.8071 14.6864C83.0334 15.4601 82.108 15.8469 81.0309 15.8469C79.9234 15.8469 78.9752 15.4525 78.1863 14.6636C77.4126 13.8595 77.0258 12.8886 77.0258 11.7508C77.0258 10.6585 77.4126 9.72549 78.1863 8.95177C78.9601 8.17806 79.8931 7.7912 80.9854 7.7912ZM77.8677 17.986H84.103V42.7449H77.8677V17.986ZM114.551 32.1632H94.5936C94.8819 33.923 95.648 35.3263 96.892 36.3731C98.1512 37.4047 99.7517 37.9205 101.694 37.9205C104.015 37.9205 106.01 37.1089 107.678 35.4856L112.912 37.9433C111.608 39.7941 110.045 41.1671 108.225 42.0622C106.404 42.9421 104.242 43.382 101.739 43.382C97.8554 43.382 94.6922 42.1608 92.2497 39.7183C89.8072 37.2606 88.586 34.1885 88.586 30.502C88.586 26.7244 89.7996 23.5917 92.227 21.1036C94.6695 18.6004 97.7264 17.3488 101.398 17.3488C105.297 17.3488 108.467 18.6004 110.91 21.1036C113.352 23.5917 114.574 26.8837 114.574 30.9799L114.551 32.1632ZM108.316 27.2706C107.906 25.89 107.094 24.7674 105.881 23.9027C104.682 23.0379 103.287 22.6056 101.694 22.6056C99.9641 22.6056 98.447 23.091 97.1423 24.062C96.3231 24.6688 95.5646 25.7383 94.8667 27.2706H108.316ZM137.899 17.986H144.089V39.1949C144.089 43.382 143.247 46.4617 141.563 48.4339C139.302 51.104 135.896 52.4391 131.345 52.4391C128.918 52.4391 126.877 52.1356 125.224 51.5288C123.57 50.922 122.174 50.0269 121.036 48.8436C119.899 47.6754 119.057 46.2493 118.51 44.5654H125.36C125.967 45.2632 126.748 45.7866 127.704 46.1356C128.66 46.4997 129.79 46.6817 131.095 46.6817C132.764 46.6817 134.106 46.4238 135.123 45.908C136.139 45.3922 136.852 44.7247 137.262 43.9054C137.686 43.0862 137.899 41.6753 137.899 39.6728C136.807 40.7651 135.661 41.554 134.463 42.0394C133.264 42.5097 131.906 42.7449 130.389 42.7449C127.067 42.7449 124.26 41.5464 121.969 39.1494C119.679 36.7524 118.533 33.7182 118.533 30.0469C118.533 26.1176 119.747 22.9621 122.174 20.5802C124.374 18.426 126.999 17.3488 130.048 17.3488C131.474 17.3488 132.817 17.6143 134.076 18.1453C135.35 18.6611 136.625 19.5183 137.899 20.7168V17.986ZM131.459 23.1517C129.502 23.1517 127.886 23.8116 126.612 25.1315C125.337 26.4362 124.7 28.0822 124.7 30.0696C124.7 32.1329 125.353 33.8244 126.657 35.1443C127.962 36.4641 129.6 37.1241 131.573 37.1241C133.499 37.1241 135.085 36.4793 136.329 35.1898C137.588 33.9003 138.217 32.2087 138.217 30.1151C138.217 28.0519 137.588 26.3755 136.329 25.086C135.069 23.7965 133.446 23.1517 131.459 23.1517ZM168.665 17.986H174.855V39.1949C174.855 43.382 174.013 46.4617 172.329 48.4339C170.069 51.104 166.663 52.4391 162.112 52.4391C159.684 52.4391 157.644 52.1356 155.99 51.5288C154.336 50.922 152.941 50.0269 151.803 48.8436C150.665 47.6754 149.823 46.2493 149.277 44.5654H156.127C156.733 45.2632 157.515 45.7866 158.471 46.1356C159.426 46.4997 160.557 46.6817 161.861 46.6817C163.53 46.6817 164.873 46.4238 165.889 45.908C166.906 45.3922 167.619 44.7247 168.028 43.9054C168.453 43.0862 168.665 41.6753 168.665 39.6728C167.573 40.7651 166.428 41.554 165.229 42.0394C164.031 42.5097 162.673 42.7449 161.156 42.7449C157.833 42.7449 155.027 41.5464 152.736 39.1494C150.445 36.7524 149.3 33.7182 149.3 30.0469C149.3 26.1176 150.513 22.9621 152.941 20.5802C155.141 18.426 157.765 17.3488 160.814 17.3488C162.241 17.3488 163.583 17.6143 164.842 18.1453C166.117 18.6611 167.391 19.5183 168.665 20.7168V17.986ZM162.225 23.1517C160.268 23.1517 158.653 23.8116 157.378 25.1315C156.104 26.4362 155.467 28.0822 155.467 30.0696C155.467 32.1329 156.119 33.8244 157.424 35.1443C158.728 36.4641 160.367 37.1241 162.339 37.1241C164.266 37.1241 165.851 36.4793 167.095 35.1898C168.354 33.9003 168.984 32.2087 168.984 30.1151C168.984 28.0519 168.354 26.3755 167.095 25.086C165.836 23.7965 164.213 23.1517 162.225 23.1517ZM196.292 21.445L192.446 25.2908C190.883 23.7434 189.465 22.9697 188.19 22.9697C187.492 22.9697 186.946 23.1214 186.552 23.4248C186.157 23.713 185.96 24.0771 185.96 24.5171C185.96 24.8508 186.082 25.1618 186.324 25.4501C186.582 25.7232 187.204 26.1024 188.19 26.5879L190.466 27.7257C192.863 28.909 194.509 30.1151 195.404 31.344C196.299 32.5728 196.747 34.014 196.747 35.6677C196.747 37.8674 195.935 39.7031 194.312 41.1747C192.704 42.6463 190.542 43.382 187.826 43.382C184.216 43.382 181.333 41.9712 179.179 39.1494L183.002 34.985C183.73 35.8345 184.58 36.5248 185.551 37.0558C186.537 37.5716 187.409 37.8295 188.168 37.8295C188.987 37.8295 189.647 37.6323 190.147 37.2378C190.648 36.8434 190.898 36.3883 190.898 35.8725C190.898 34.9167 189.996 33.9837 188.19 33.0734L186.097 32.0267C182.092 30.0089 180.089 27.483 180.089 24.4488C180.089 22.4918 180.84 20.823 182.342 19.4424C183.859 18.0467 185.793 17.3488 188.145 17.3488C189.753 17.3488 191.262 17.7054 192.673 18.4184C194.099 19.1163 195.305 20.1251 196.292 21.445Z" fill="#FF4F5A"/>
</svg>
