<svg width="80" height="22" viewBox="0 0 80 22" fill="none" xmlns="http://www.w3.org/2000/svg">
<path d="M7.11506 21.3761C3.18695 21.3761 0 17.5962 0 13.6681C0 9.51763 2.37169 3.58838 7.11506 3.58838C11.8584 3.58838 14.2301 9.51763 14.2301 13.6681C14.2301 17.5962 11.0432 21.3761 7.11506 21.3761ZM5.73652 7.9612C5.97739 7.73886 5.99592 7.36457 5.77358 7.1237C5.55123 6.88282 5.17695 6.86429 4.93607 7.08664C4.0504 7.8945 3.41301 9.03959 2.99796 10.2069C2.58292 11.3742 2.37169 12.6194 2.37169 13.6681C2.37169 13.9942 2.6385 14.261 2.96461 14.261C3.29072 14.261 3.55753 13.9942 3.55753 13.6681C3.55753 12.7602 3.74282 11.6522 4.1171 10.5997C4.49138 9.54357 5.04354 8.59489 5.73652 7.9612Z" fill="#6E809B"/>
<path d="M26.6225 7.64932H29.1162V17.624H26.6225V16.5697C26.1336 17.0342 25.6415 17.3704 25.1465 17.5782C24.6575 17.7799 24.1258 17.8807 23.5513 17.8807C22.2616 17.8807 21.1462 17.3826 20.205 16.3864C19.2637 15.384 18.7931 14.1402 18.7931 12.655C18.7931 11.1148 19.2484 9.85268 20.1591 8.86866C21.0698 7.88463 22.1761 7.39262 23.4779 7.39262C24.0769 7.39262 24.6392 7.50569 25.1648 7.73183C25.6904 7.95798 26.1763 8.29719 26.6225 8.74947V7.64932ZM23.9913 9.70294C23.2151 9.70294 22.5703 9.97797 22.0569 10.528C21.5435 11.072 21.2868 11.7718 21.2868 12.6275C21.2868 13.4893 21.5465 14.1983 22.0661 14.7545C22.5917 15.3107 23.2365 15.5887 24.0005 15.5887C24.7889 15.5887 25.4429 15.3168 25.9624 14.7728C26.4819 14.2227 26.7417 13.5046 26.7417 12.6183C26.7417 11.7504 26.4819 11.0476 25.9624 10.5097C25.4429 9.97186 24.7859 9.70294 23.9913 9.70294ZM32.6275 3.54209C33.0676 3.54209 33.4434 3.701 33.7552 4.01882C34.073 4.33664 34.2319 4.7217 34.2319 5.17398C34.2319 5.62015 34.076 6.00215 33.7643 6.31997C33.4526 6.63168 33.0798 6.78754 32.6458 6.78754C32.1997 6.78754 31.8177 6.62863 31.4998 6.3108C31.1881 5.98687 31.0323 5.59571 31.0323 5.13731C31.0323 4.69725 31.1881 4.32136 31.4998 4.00966C31.8116 3.69795 32.1874 3.54209 32.6275 3.54209ZM31.3715 7.64932H33.8835V17.624H31.3715V7.64932ZM46.1502 13.3609H38.1099C38.226 14.0699 38.5347 14.6353 39.0359 15.057C39.5432 15.4726 40.188 15.6804 40.9703 15.6804C41.9054 15.6804 42.7092 15.3534 43.3815 14.6995L45.4901 15.6896C44.9645 16.4352 44.3349 16.9884 43.6015 17.349C42.8681 17.7035 41.9971 17.8807 40.9887 17.8807C39.424 17.8807 38.1497 17.3887 37.1656 16.4047C36.1816 15.4146 35.6896 14.1769 35.6896 12.6917C35.6896 11.1698 36.1785 9.90769 37.1565 8.90533C38.1405 7.89686 39.372 7.39262 40.8511 7.39262C42.4219 7.39262 43.6993 7.89686 44.6833 8.90533C45.6673 9.90769 46.1594 11.234 46.1594 12.8842L46.1502 13.3609ZM43.6382 11.3898C43.4732 10.8336 43.1462 10.3814 42.6572 10.033C42.1744 9.6846 41.6121 9.51041 40.9703 9.51041C40.2736 9.51041 39.6624 9.70599 39.1367 10.0972C38.8067 10.3416 38.5011 10.7725 38.2199 11.3898H43.6382ZM55.5565 7.64932H58.0502V16.1938C58.0502 17.8807 57.7109 19.1215 57.0325 19.916C56.1218 20.9917 54.7497 21.5296 52.9161 21.5296C51.9382 21.5296 51.1162 21.4073 50.4499 21.1628C49.7837 20.9184 49.2214 20.5578 48.7631 20.081C48.3047 19.6104 47.9654 19.0359 47.7454 18.3575H50.505C50.7494 18.6386 51.0642 18.8495 51.4493 18.99C51.8343 19.1367 52.2896 19.2101 52.8153 19.2101C53.4876 19.2101 54.0285 19.1062 54.438 18.8984C54.8475 18.6906 55.1348 18.4216 55.2998 18.0916C55.4709 17.7615 55.5565 17.1931 55.5565 16.3864C55.1164 16.8264 54.655 17.1442 54.1721 17.3398C53.6893 17.5293 53.1423 17.624 52.5311 17.624C51.1926 17.624 50.0618 17.1412 49.1389 16.1755C48.216 15.2098 47.7546 13.9874 47.7546 12.5083C47.7546 10.9253 48.2435 9.65404 49.2214 8.69446C50.1077 7.82657 51.165 7.39262 52.3935 7.39262C52.9681 7.39262 53.509 7.49958 54.0163 7.7135C54.5297 7.9213 55.0431 8.26663 55.5565 8.74947V7.64932ZM52.962 9.73044C52.1735 9.73044 51.5226 9.99631 51.0092 10.528C50.4958 11.0537 50.2391 11.7168 50.2391 12.5175C50.2391 13.3487 50.5019 14.0302 51.0275 14.5619C51.5532 15.0937 52.2132 15.3595 53.0078 15.3595C53.784 15.3595 54.4227 15.0998 54.9239 14.5803C55.4312 14.0608 55.6848 13.3793 55.6848 12.5358C55.6848 11.7046 55.4312 11.0292 54.9239 10.5097C54.4166 9.9902 53.7626 9.73044 52.962 9.73044ZM67.9515 7.64932H70.4452V16.1938C70.4452 17.8807 70.106 19.1215 69.4276 19.916C68.5169 20.9917 67.1447 21.5296 65.3112 21.5296C64.3332 21.5296 63.5112 21.4073 62.845 21.1628C62.1788 20.9184 61.6165 20.5578 61.1581 20.081C60.6997 19.6104 60.3605 19.0359 60.1404 18.3575H62.9C63.1445 18.6386 63.4592 18.8495 63.8443 18.99C64.2293 19.1367 64.6847 19.2101 65.2103 19.2101C65.8826 19.2101 66.4235 19.1062 66.833 18.8984C67.2425 18.6906 67.5298 18.4216 67.6948 18.0916C67.8659 17.7615 67.9515 17.1931 67.9515 16.3864C67.5115 16.8264 67.05 17.1442 66.5672 17.3398C66.0843 17.5293 65.5373 17.624 64.9261 17.624C63.5876 17.624 62.4569 17.1412 61.534 16.1755C60.6111 15.2098 60.1496 13.9874 60.1496 12.5083C60.1496 10.9253 60.6386 9.65404 61.6165 8.69446C62.5027 7.82657 63.5601 7.39262 64.7886 7.39262C65.3631 7.39262 65.904 7.49958 66.4113 7.7135C66.9247 7.9213 67.4381 8.26663 67.9515 8.74947V7.64932ZM65.357 9.73044C64.5686 9.73044 63.9176 9.99631 63.4042 10.528C62.8908 11.0537 62.6341 11.7168 62.6341 12.5175C62.6341 13.3487 62.8969 14.0302 63.4226 14.5619C63.9482 15.0937 64.6083 15.3595 65.4028 15.3595C66.179 15.3595 66.8177 15.0998 67.3189 14.5803C67.8262 14.0608 68.0799 13.3793 68.0799 12.5358C68.0799 11.7046 67.8262 11.0292 67.3189 10.5097C66.8116 9.9902 66.1577 9.73044 65.357 9.73044ZM79.0814 9.04285L77.532 10.5922C76.9025 9.96881 76.331 9.6571 75.8176 9.6571C75.5364 9.6571 75.3164 9.71822 75.1575 9.84046C74.9986 9.95658 74.9191 10.1033 74.9191 10.2805C74.9191 10.415 74.968 10.5403 75.0658 10.6564C75.1697 10.7664 75.4203 10.9192 75.8176 11.1148L76.7344 11.5732C77.7001 12.0499 78.3632 12.5358 78.7238 13.0309C79.0844 13.526 79.2647 14.1066 79.2647 14.7728C79.2647 15.659 78.9377 16.3986 78.2838 16.9914C77.6359 17.5843 76.7649 17.8807 75.6709 17.8807C74.2163 17.8807 73.055 17.3123 72.1871 16.1755L73.7273 14.4978C74.0207 14.84 74.363 15.1181 74.7541 15.332C75.1514 15.5398 75.5028 15.6438 75.8084 15.6438C76.1385 15.6438 76.4043 15.5643 76.606 15.4054C76.8077 15.2465 76.9086 15.0631 76.9086 14.8553C76.9086 14.4703 76.5449 14.0944 75.8176 13.7277L74.9741 13.3059C73.3606 12.493 72.5538 11.4754 72.5538 10.253C72.5538 9.46457 72.8564 8.79226 73.4614 8.23607C74.0726 7.67377 74.8519 7.39262 75.7993 7.39262C76.4471 7.39262 77.0553 7.53625 77.6237 7.82351C78.1982 8.10466 78.6841 8.51111 79.0814 9.04285Z" fill="#6E809B"/>
</svg>
