<svg width="100" height="22" viewBox="0 0 100 22" fill="none" xmlns="http://www.w3.org/2000/svg">
<path fill-rule="evenodd" clip-rule="evenodd" d="M3.98396 5.70805C2.65948 7.8064 1.76991 10.6228 1.76991 13.425C1.76991 15.4528 2.44915 17.0733 3.57543 18.1858C4.69915 19.2958 6.33771 19.9687 8.38765 19.9729C10.3696 19.8821 12.0278 19.2051 13.183 18.1036C14.3334 17.0067 15.0442 15.4337 15.0442 13.425C15.0442 10.6229 14.1547 7.81042 12.8304 5.71397C11.4756 3.56951 9.82681 2.40313 8.4053 2.40029C6.98678 2.39745 5.3392 3.56096 3.98396 5.70805ZM2.48727 4.76333C3.95282 2.44147 6.0663 0.625695 8.40884 0.63038C10.7484 0.635059 12.8606 2.44798 14.3267 4.76869C15.8231 7.13742 16.8141 10.276 16.8141 13.425C16.8141 15.8801 15.9314 17.9285 14.4044 19.3845C12.886 20.8324 10.7902 21.6392 8.44586 21.742C8.43294 21.7426 8.42 21.7429 8.40707 21.7429C5.95282 21.7429 3.83712 20.932 2.33165 19.445C0.825177 17.957 0 15.861 0 13.425C0 10.2761 0.990953 7.13392 2.48727 4.76333Z" fill="#58677F"/>
<path fill-rule="evenodd" clip-rule="evenodd" d="M8.66134 0.667682C9.12948 0.808122 9.39512 1.30147 9.25468 1.7696L7.82473 6.53613L11.0706 8.85461C11.4402 9.11858 11.5499 9.61946 11.3246 10.0138L8.73635 14.5432L7.19963 13.6651L9.3911 9.83001L6.2808 7.60837C5.9727 7.3883 5.83874 6.99661 5.94754 6.63396L7.55942 1.26102C7.69986 0.79289 8.19321 0.527241 8.66134 0.667682Z" fill="#58677F"/>
<path d="M86.1494 6.41377V4.44664H94.034V9.55794H88.6809V10.7189H94.3565V12.686H86.1494V7.59082H91.5026V6.41377H86.1494ZM89.3581 13.4922V16.1365H98.7584V18.0875H86.8266V13.4922H89.3581ZM98.5971 8.94523V13.9114H96.0657V4.2854H98.5971V6.97811H99.9999V8.94523H98.5971Z" fill="#58677F"/>
<path d="M79.6926 11.1058C79.6926 12.3313 79.5636 13.3793 79.3057 14.2178C79.0315 15.0723 78.6929 15.7657 78.2737 16.2816C77.8384 16.7976 77.3546 17.1685 76.8064 17.4103C76.2421 17.6361 75.6778 17.7651 75.0973 17.7651C74.5007 17.7651 73.9364 17.6361 73.3881 17.4103C72.8238 17.1685 72.3401 16.7976 71.9209 16.2816C71.4855 15.7657 71.1469 15.0723 70.8889 14.2178C70.6309 13.3793 70.502 12.3313 70.502 11.1058C70.502 9.88042 70.6309 8.84849 70.8889 7.99392C71.1469 7.15547 71.4855 6.47826 71.9209 5.94617C72.3401 5.4302 72.8238 5.04323 73.3881 4.80137C73.9364 4.57563 74.5007 4.44664 75.0973 4.44664C75.6778 4.44664 76.2421 4.57563 76.8064 4.80137C77.3546 5.04323 77.8384 5.4302 78.2737 5.94617C78.6929 6.47826 79.0315 7.15547 79.3057 7.99392C79.5636 8.84849 79.6926 9.88042 79.6926 11.1058ZM73.0173 11.1058C73.0173 12.0249 73.0657 12.7827 73.1947 13.3793C73.2914 13.992 73.4526 14.4596 73.6461 14.8144C73.8235 15.1852 74.0492 15.4432 74.3072 15.5722C74.5491 15.7334 74.8071 15.7979 75.0973 15.7979C75.3553 15.7979 75.6294 15.7334 75.8874 15.5722C76.1292 15.4432 76.355 15.1852 76.5484 14.8305C76.7258 14.4758 76.8709 13.992 76.9999 13.3793C77.0967 12.7827 77.1612 12.0249 77.1612 11.0897C77.1612 10.1868 77.0967 9.42895 76.9999 8.81624C76.8709 8.21965 76.7258 7.73593 76.5484 7.38121C76.355 7.02648 76.1292 6.78462 75.8874 6.62338C75.6294 6.49439 75.3553 6.41377 75.0973 6.41377C74.8071 6.41377 74.5491 6.49439 74.3072 6.62338C74.0492 6.78462 73.8235 7.02648 73.6461 7.38121C73.4526 7.75206 73.2914 8.23578 73.1947 8.83236C73.0657 9.44508 73.0173 10.2029 73.0173 11.1058ZM83.9171 17.7651H81.3856V4.2854H83.9171V17.7651Z" fill="#58677F"/>
<path d="M64.2071 11.1058C64.2071 12.3313 64.0781 13.3793 63.8201 14.2178C63.5621 15.0723 63.2235 15.7657 62.8043 16.2816C62.385 16.7976 61.9013 17.1685 61.3854 17.4103C60.8371 17.6361 60.3051 17.7651 59.773 17.7651C59.2247 17.7651 58.6765 17.6361 58.1606 17.4103C57.6123 17.1685 57.1448 16.7976 56.7255 16.2816C56.3063 15.7657 55.9677 15.0723 55.7258 14.2178C55.4679 13.3793 55.3389 12.3313 55.3389 11.1058C55.3389 9.88042 55.4679 8.84849 55.7258 7.99392C55.9677 7.15547 56.3063 6.47826 56.7255 5.94617C57.1448 5.4302 57.6123 5.04323 58.1606 4.80137C58.6765 4.57563 59.2247 4.44664 59.773 4.44664C60.3051 4.44664 60.8371 4.57563 61.3854 4.80137C61.9013 5.04323 62.385 5.4302 62.8043 5.94617C63.2235 6.47826 63.5621 7.15547 63.8201 7.99392C64.0781 8.84849 64.2071 9.88042 64.2071 11.1058ZM68.2703 9.33221H69.6731V11.2993H68.2703V17.7651H65.7388V4.2854H68.2703V9.33221ZM57.8542 11.1058C57.8542 12.0249 57.9026 12.7827 58.0154 13.3793C58.1122 13.992 58.2573 14.4596 58.4508 14.8144C58.6282 15.1852 58.8378 15.4432 59.0635 15.5722C59.2892 15.7334 59.515 15.7979 59.773 15.7979C59.9987 15.7979 60.2406 15.7334 60.4663 15.5722C60.692 15.4432 60.8855 15.1852 61.079 14.8305C61.2402 14.4758 61.3854 13.992 61.5144 13.3793C61.6111 12.7827 61.6756 12.0249 61.6756 11.0897C61.6756 10.1868 61.6111 9.42895 61.5144 8.81624C61.3854 8.21965 61.2402 7.73593 61.079 7.38121C60.8855 7.02648 60.692 6.78462 60.4663 6.62338C60.2406 6.49439 59.9987 6.41377 59.773 6.41377C59.515 6.41377 59.2892 6.49439 59.0635 6.62338C58.8378 6.78462 58.6282 7.02648 58.4508 7.38121C58.2573 7.75206 58.1122 8.23578 58.0154 8.83236C57.9026 9.44508 57.8542 10.2029 57.8542 11.1058Z" fill="#58677F"/>
<path d="M49.3655 11.1058C49.3655 12.3313 49.2365 13.3793 48.9785 14.2178C48.7044 15.0723 48.3658 15.7657 47.9466 16.2816C47.5112 16.7976 47.0275 17.1685 46.4793 17.4103C45.9149 17.6361 45.3506 17.7651 44.7701 17.7651C44.1736 17.7651 43.6092 17.6361 43.061 17.4103C42.4967 17.1685 42.0129 16.7976 41.5937 16.2816C41.1584 15.7657 40.8198 15.0723 40.5618 14.2178C40.3038 13.3793 40.1748 12.3313 40.1748 11.1058C40.1748 9.88042 40.3038 8.84849 40.5618 7.99392C40.8198 7.15547 41.1584 6.47826 41.5937 5.94617C42.0129 5.4302 42.4967 5.04323 43.061 4.80137C43.6092 4.57563 44.1736 4.44664 44.7701 4.44664C45.3506 4.44664 45.9149 4.57563 46.4793 4.80137C47.0275 5.04323 47.5112 5.4302 47.9466 5.94617C48.3658 6.47826 48.7044 7.15547 48.9785 7.99392C49.2365 8.84849 49.3655 9.88042 49.3655 11.1058ZM42.6901 11.1058C42.6901 12.0249 42.7385 12.7827 42.8675 13.3793C42.9643 13.992 43.1255 14.4596 43.319 14.8144C43.4963 15.1852 43.7221 15.4432 43.9801 15.5722C44.2219 15.7334 44.4799 15.7979 44.7701 15.7979C45.0281 15.7979 45.3022 15.7334 45.5602 15.5722C45.8021 15.4432 46.0278 15.1852 46.2213 14.8305C46.3987 14.4758 46.5438 13.992 46.6728 13.3793C46.7695 12.7827 46.834 12.0249 46.834 11.0897C46.834 10.1868 46.7695 9.42895 46.6728 8.81624C46.5438 8.21965 46.3987 7.73593 46.2213 7.38121C46.0278 7.02648 45.8021 6.78462 45.5602 6.62338C45.3022 6.49439 45.0281 6.41377 44.7701 6.41377C44.4799 6.41377 44.2219 6.49439 43.9801 6.62338C43.7221 6.78462 43.4963 7.02648 43.319 7.38121C43.1255 7.75206 42.9643 8.23578 42.8675 8.83236C42.7385 9.44508 42.6901 10.2029 42.6901 11.1058ZM53.59 17.7651H51.0585V4.2854H53.59V17.7651Z" fill="#58677F"/>
<path d="M33.4712 17.7651V11.3638L31.9072 11.8959C31.8588 13.0085 31.7298 13.9437 31.5041 14.6854C31.2783 15.4432 30.9881 16.0398 30.6334 16.5074C30.2625 16.9589 29.8433 17.2813 29.3918 17.4748C28.9242 17.6683 28.4244 17.7651 27.9084 17.7651C27.3441 17.7651 26.8281 17.6522 26.3444 17.4426C25.8446 17.2168 25.4253 16.846 25.0706 16.33C24.6998 15.8141 24.4095 15.1368 24.216 14.2823C23.9903 13.4438 23.8936 12.3796 23.8936 11.1058C23.8936 9.84818 23.9903 8.80012 24.216 7.92942C24.4095 7.09097 24.6998 6.39764 25.0706 5.88167C25.4253 5.36571 25.8446 4.99486 26.3444 4.76912C26.8281 4.55951 27.3441 4.44664 27.9084 4.44664C28.4083 4.44664 28.892 4.54338 29.3435 4.72075C29.7949 4.91424 30.198 5.20447 30.5528 5.62369C30.9075 6.05904 31.1977 6.62338 31.4396 7.31671C31.6653 8.02617 31.8104 8.88074 31.8749 9.89655L33.4712 9.34833V4.2854H35.7931V17.7651H33.4712ZM39.3081 17.7651H36.9701V4.2854H39.3081V17.7651ZM26.1993 11.1058C26.1993 12.0733 26.2477 12.8472 26.3444 13.4438C26.4411 14.0565 26.5701 14.5403 26.7314 14.8789C26.8926 15.2336 27.07 15.4754 27.2796 15.6044C27.4731 15.7334 27.6827 15.7979 27.9084 15.7979C28.118 15.7979 28.3277 15.7334 28.5373 15.6044C28.7308 15.4754 28.9242 15.2336 29.0855 14.8789C29.2306 14.5403 29.3596 14.0565 29.4563 13.4438C29.5531 12.8472 29.6014 12.0572 29.6014 11.0897C29.6014 10.1545 29.5531 9.36446 29.4563 8.75174C29.3596 8.15516 29.2306 7.67144 29.0855 7.31671C28.9242 6.97811 28.7308 6.73625 28.5373 6.60725C28.3277 6.47826 28.118 6.41377 27.9084 6.41377C27.6827 6.41377 27.4731 6.47826 27.2796 6.60725C27.07 6.73625 26.8926 6.97811 26.7314 7.31671C26.5701 7.67144 26.4411 8.15516 26.3444 8.75174C26.2477 9.36446 26.1993 10.1545 26.1993 11.1058Z" fill="#58677F"/>
</svg>
