<svg width="120" height="26" viewBox="0 0 120 26" fill="none" xmlns="http://www.w3.org/2000/svg">
<path fill-rule="evenodd" clip-rule="evenodd" d="M4.78076 6.42585C3.19138 8.94388 2.12389 12.3235 2.12389 15.6862C2.12389 18.1195 2.93899 20.0642 4.29051 21.3991C5.63898 22.7311 7.60525 23.5387 10.0652 23.5437C12.4435 23.4347 14.4334 22.6224 15.8196 21.3005C17.2001 19.9842 18.0531 18.0966 18.0531 15.6862C18.0531 12.3237 16.9857 8.9487 15.3964 6.43296C13.7708 3.85961 11.7922 2.45995 10.0864 2.45654C8.38413 2.45314 6.40704 3.84935 4.78076 6.42585ZM2.98472 5.2922C4.74339 2.50597 7.27956 0.32703 10.0906 0.332652C12.8981 0.338267 15.4327 2.51377 17.192 5.29863C18.9877 8.14111 20.177 11.9074 20.177 15.6862C20.177 18.6323 19.1176 21.0904 17.2853 22.8376C15.4632 24.575 12.9483 25.5432 10.135 25.6666C10.1195 25.6673 10.104 25.6676 10.0885 25.6676C7.14338 25.6676 4.60454 24.6946 2.79797 22.9102C0.990213 21.1246 0 18.6094 0 15.6862C0 11.9076 1.18914 8.13691 2.98472 5.2922Z" fill="#FF4F79"/>
<path fill-rule="evenodd" clip-rule="evenodd" d="M10.3932 0.377341C10.955 0.54587 11.2738 1.13789 11.1052 1.69965L9.38928 7.41948L13.2843 10.2017C13.7278 10.5184 13.8595 11.1195 13.5891 11.5927L10.4832 17.028L8.63917 15.9742L11.2689 11.3721L7.53657 8.70617C7.16685 8.44209 7.0061 7.97206 7.13665 7.53688L9.07091 1.08935C9.23944 0.527591 9.83146 0.208813 10.3932 0.377341Z" fill="#FF4F79"/>
<path d="M103.38 7.27291V4.91236H112.841V11.0459H106.418V12.439H113.228V14.7996H103.38V8.68537H109.804V7.27291H103.38ZM107.23 15.767V18.9402H118.511V21.2814H104.193V15.767H107.23ZM118.317 10.3107V16.2701H115.279V4.71887H118.317V7.95012H120V10.3107H118.317Z" fill="#FF4F79"/>
<path d="M95.6313 12.9033C95.6313 14.3738 95.4766 15.6315 95.167 16.6376C94.838 17.6631 94.4317 18.4951 93.9287 19.1142C93.4062 19.7334 92.8258 20.1784 92.1679 20.4687C91.4907 20.7395 90.8135 20.8943 90.1169 20.8943C89.401 20.8943 88.7238 20.7395 88.066 20.4687C87.3888 20.1784 86.8083 19.7334 86.3052 19.1142C85.7828 18.4951 85.3765 17.6631 85.0669 16.6376C84.7573 15.6315 84.6025 14.3738 84.6025 12.9033C84.6025 11.4328 84.7573 10.1945 85.0669 9.16897C85.3765 8.16283 85.7828 7.35018 86.3052 6.71167C86.8083 6.09251 87.3888 5.62814 88.066 5.33791C88.7238 5.06703 89.401 4.91224 90.1169 4.91224C90.8135 4.91224 91.4907 5.06703 92.1679 5.33791C92.8258 5.62814 93.4062 6.09251 93.9287 6.71167C94.4317 7.35018 94.838 8.16283 95.167 9.16897C95.4766 10.1945 95.6313 11.4328 95.6313 12.9033ZM87.6209 12.9033C87.6209 14.0062 87.679 14.9156 87.8338 15.6315C87.9499 16.3667 88.1434 16.9278 88.3755 17.3535C88.5884 17.7985 88.8593 18.1081 89.1689 18.2629C89.4591 18.4564 89.7687 18.5338 90.1169 18.5338C90.4265 18.5338 90.7554 18.4564 91.065 18.2629C91.3553 18.1081 91.6261 17.7985 91.8583 17.3729C92.0712 16.9472 92.2453 16.3667 92.4001 15.6315C92.5162 14.9156 92.5936 14.0062 92.5936 12.8839C92.5936 11.8004 92.5162 10.891 92.4001 10.1558C92.2453 9.43985 92.0712 8.85939 91.8583 8.43372C91.6261 8.00804 91.3553 7.71781 91.065 7.52432C90.7554 7.36953 90.4265 7.27279 90.1169 7.27279C89.7687 7.27279 89.4591 7.36953 89.1689 7.52432C88.8593 7.71781 88.5884 8.00804 88.3755 8.43372C88.1434 8.87874 87.9499 9.4592 87.8338 10.1751C87.679 10.9104 87.6209 11.8198 87.6209 12.9033ZM100.701 20.8943H97.663V4.71875H100.701V20.8943Z" fill="#FF4F79"/>
<path d="M77.0491 12.9033C77.0491 14.3738 76.8943 15.6315 76.5847 16.6376C76.2751 17.6631 75.8688 18.4951 75.3657 19.1142C74.8626 19.7334 74.2822 20.1784 73.663 20.4687C73.0052 20.7395 72.3667 20.8943 71.7281 20.8943C71.0703 20.8943 70.4124 20.7395 69.7933 20.4687C69.1354 20.1784 68.5743 19.7334 68.0712 19.1142C67.5682 18.4951 67.1618 17.6631 66.8716 16.6376C66.562 15.6315 66.4072 14.3738 66.4072 12.9033C66.4072 11.4328 66.562 10.1945 66.8716 9.16897C67.1618 8.16283 67.5682 7.35018 68.0712 6.71167C68.5743 6.09251 69.1354 5.62814 69.7933 5.33791C70.4124 5.06703 71.0703 4.91224 71.7281 4.91224C72.3667 4.91224 73.0052 5.06703 73.663 5.33791C74.2822 5.62814 74.8626 6.09251 75.3657 6.71167C75.8688 7.35018 76.2751 8.16283 76.5847 9.16897C76.8943 10.1945 77.0491 11.4328 77.0491 12.9033ZM81.925 10.7749H83.6083V13.1355H81.925V20.8943H78.8872V4.71875H81.925V10.7749ZM69.4256 12.9033C69.4256 14.0062 69.4837 14.9156 69.6191 15.6315C69.7352 16.3667 69.9094 16.9278 70.1415 17.3535C70.3544 17.7985 70.6059 18.1081 70.8768 18.2629C71.1477 18.4564 71.4186 18.5338 71.7281 18.5338C71.999 18.5338 72.2893 18.4564 72.5601 18.2629C72.831 18.1081 73.0632 17.7985 73.2954 17.3729C73.4889 16.9472 73.663 16.3667 73.8178 15.6315C73.9339 14.9156 74.0113 14.0062 74.0113 12.8839C74.0113 11.8004 73.9339 10.891 73.8178 10.1558C73.663 9.43985 73.4889 8.85939 73.2954 8.43372C73.0632 8.00804 72.831 7.71781 72.5601 7.52432C72.2893 7.36953 71.999 7.27279 71.7281 7.27279C71.4186 7.27279 71.1477 7.36953 70.8768 7.52432C70.6059 7.71781 70.3544 8.00804 70.1415 8.43372C69.9094 8.87874 69.7352 9.4592 69.6191 10.1751C69.4837 10.9104 69.4256 11.8198 69.4256 12.9033Z" fill="#FF4F79"/>
<path d="M59.2388 12.9033C59.2388 14.3738 59.084 15.6315 58.7744 16.6376C58.4455 17.6631 58.0391 18.4951 57.5361 19.1142C57.0137 19.7334 56.4332 20.1784 55.7753 20.4687C55.0981 20.7395 54.4209 20.8943 53.7244 20.8943C53.0085 20.8943 52.3313 20.7395 51.6734 20.4687C50.9962 20.1784 50.4157 19.7334 49.9127 19.1142C49.3902 18.4951 48.9839 17.6631 48.6743 16.6376C48.3648 15.6315 48.21 14.3738 48.21 12.9033C48.21 11.4328 48.3648 10.1945 48.6743 9.16897C48.9839 8.16283 49.3902 7.35018 49.9127 6.71167C50.4157 6.09251 50.9962 5.62814 51.6734 5.33791C52.3313 5.06703 53.0085 4.91224 53.7244 4.91224C54.4209 4.91224 55.0981 5.06703 55.7753 5.33791C56.4332 5.62814 57.0137 6.09251 57.5361 6.71167C58.0391 7.35018 58.4455 8.16283 58.7744 9.16897C59.084 10.1945 59.2388 11.4328 59.2388 12.9033ZM51.2284 12.9033C51.2284 14.0062 51.2864 14.9156 51.4412 15.6315C51.5573 16.3667 51.7508 16.9278 51.983 17.3535C52.1958 17.7985 52.4667 18.1081 52.7763 18.2629C53.0665 18.4564 53.3761 18.5338 53.7244 18.5338C54.0339 18.5338 54.3629 18.4564 54.6725 18.2629C54.9627 18.1081 55.2336 17.7985 55.4658 17.3729C55.6786 16.9472 55.8527 16.3667 56.0075 15.6315C56.1236 14.9156 56.201 14.0062 56.201 12.8839C56.201 11.8004 56.1236 10.891 56.0075 10.1558C55.8527 9.43985 55.6786 8.85939 55.4658 8.43372C55.2336 8.00804 54.9627 7.71781 54.6725 7.52432C54.3629 7.36953 54.0339 7.27279 53.7244 7.27279C53.3761 7.27279 53.0665 7.36953 52.7763 7.52432C52.4667 7.71781 52.1958 8.00804 51.983 8.43372C51.7508 8.87874 51.5573 9.4592 51.4412 10.1751C51.2864 10.9104 51.2284 11.8198 51.2284 12.9033ZM64.3081 20.8943H61.2704V4.71875H64.3081V20.8943Z" fill="#FF4F79"/>
<path d="M40.166 20.8943V13.2129L38.2892 13.8514C38.2312 15.1864 38.0764 16.3087 37.8055 17.1987C37.5346 18.1081 37.1863 18.824 36.7606 19.3851C36.3156 19.9269 35.8126 20.3139 35.2708 20.5461C34.7097 20.7782 34.1099 20.8943 33.4907 20.8943C32.8135 20.8943 32.1943 20.7589 31.6139 20.5074C31.0141 20.2365 30.511 19.7915 30.0853 19.1723C29.6403 18.5531 29.292 17.7405 29.0598 16.715C28.7889 15.7089 28.6729 14.4318 28.6729 12.9033C28.6729 11.3941 28.7889 10.1364 29.0598 9.09158C29.292 8.08544 29.6403 7.25344 30.0853 6.63428C30.511 6.01512 31.0141 5.5701 31.6139 5.29921C32.1943 5.04768 32.8135 4.91224 33.4907 4.91224C34.0905 4.91224 34.671 5.02833 35.2127 5.24117C35.7545 5.47335 36.2382 5.82163 36.6639 6.3247C37.0896 6.84712 37.4379 7.52432 37.7281 8.35632C37.999 9.20767 38.1731 10.2332 38.2505 11.4521L40.166 10.7943V4.71875H42.9523V20.8943H40.166ZM47.1703 20.8943H44.3647V4.71875H47.1703V20.8943ZM31.4397 12.9033C31.4397 14.0642 31.4978 14.993 31.6139 15.7089C31.73 16.4441 31.8847 17.0246 32.0782 17.4309C32.2717 17.8566 32.4846 18.1468 32.7361 18.3016C32.9683 18.4564 33.2198 18.5338 33.4907 18.5338C33.7422 18.5338 33.9938 18.4564 34.2453 18.3016C34.4775 18.1468 34.7097 17.8566 34.9032 17.4309C35.0773 17.0246 35.2321 16.4441 35.3482 15.7089C35.4643 14.993 35.5223 14.0449 35.5223 12.8839C35.5223 11.7617 35.4643 10.8136 35.3482 10.0784C35.2321 9.36246 35.0773 8.78199 34.9032 8.35632C34.7097 7.95 34.4775 7.65977 34.2453 7.50497C33.9938 7.35018 33.7422 7.27279 33.4907 7.27279C33.2198 7.27279 32.9683 7.35018 32.7361 7.50497C32.4846 7.65977 32.2717 7.95 32.0782 8.35632C31.8847 8.78199 31.73 9.36246 31.6139 10.0784C31.4978 10.8136 31.4397 11.7617 31.4397 12.9033Z" fill="#FF4F79"/>
</svg>
